PathFileType  4	(X/Y/Z) C:\Users\antoi\Documents\MyRepositories\mobilecap\ResultsAnalysis
DataRate	CameraRate	NumFrames	NumMarkers	Units	OrigDataRate	OrigDataStartFrame	OrigNumFrames
100.0	100.0	4	51	mm	100.0	146	291
Frame#	Time	r_knee			r_shank_antsup			r_ankle			r_calc			r_5meta			r_toe			L_knee			L_shank_antsup			L_ankle			L_calc			L_5meta			L_toe			r_sh2			r_sh3			r_sh4			L_sh2			L_sh3			r_thigh1			r_thigh2			r_thigh3			r_thigh4			r_thigh5			L_thigh1			L_thigh2			L_thigh3			L_thigh4			r.ASIS			r.PSIS			L.ASIS			L.PSIS			C7			R_Shoulder			L_Shoulder			R_Sternum			L_Sternum			R_humerus			R_elbow_med			R_elbow_lat			R_forearm			R_wrist_radius			R_wrist_ulna			L_humerus			L_elbow_med			L_elbow_lat			L_forearm			L_wrist_radius			L_wrist_ulna			R_HJC			L_HJC			R_HJC_reg			L_HJC_reg			
		X1	Y1	Z1	X2	Y2	Z2	X3	Y3	Z3	X4	Y4	Z4	X5	Y5	Z5	X6	Y6	Z6	X7	Y7	Z7	X8	Y8	Z8	X9	Y9	Z9	X10	Y10	Z10	X11	Y11	Z11	X12	Y12	Z12	X13	Y13	Z13	X14	Y14	Z14	X15	Y15	Z15	X16	Y16	Z16	X17	Y17	Z17	X18	Y18	Z18	X19	Y19	Z19	X20	Y20	Z20	X21	Y21	Z21	X22	Y22	Z22	X23	Y23	Z23	X24	Y24	Z24	X25	Y25	Z25	X26	Y26	Z26	X27	Y27	Z27	X28	Y28	Z28	X29	Y29	Z29	X30	Y30	Z30	X31	Y31	Z31	X32	Y32	Z32	X33	Y33	Z33	X34	Y34	Z34	X35	Y35	Z35	X36	Y36	Z36	X37	Y37	Z37	X38	Y38	Z38	X39	Y39	Z39	X40	Y40	Z40	X41	Y41	Z41	X42	Y42	Z42	X43	Y43	Z43	X44	Y44	Z44	X45	Y45	Z45	X46	Y46	Z46	X47	Y47	Z47	X48	Y48	Z48	X49	Y49	Z49	X50	Y50	Z50	X51	Y51	Z51	

146	1.45000000	-392.80571	787.43917	-373.48492	-414.16610	738.40632	-344.67021	-364.38904	381.16696	-384.94073	-418.69475	363.27786	-442.95684	-255.31177	283.77660	-355.78758	-203.39063	309.47334	-398.73898	-405.62662	783.04148	-750.82778	-363.64747	710.41470	-768.21396	-347.46071	383.52936	-760.89326	-410.24456	356.21648	-714.65266	-234.30995	288.76749	-767.52533	-193.78342	307.55438	-712.52615	-398.99483	622.75306	-337.93624	-344.05132	749.49204	-375.79579	-329.29119	634.86066	-382.18120	-448.71323	704.21091	-781.80415	-425.26093	584.04637	-789.93312	-425.09242	1084.31910	-454.98308	-374.33467	986.92052	-437.60157	-384.36390	967.19924	-372.64455	-483.33243	1071.24648	-361.47766	-435.53539	967.46663	-347.08654	-457.19105	1100.47239	-729.25348	-417.91916	966.04377	-755.27920	-564.51460	1072.67086	-752.26117	-529.89453	935.20614	-743.29416	-473.69924	1229.97124	-428.34688	-649.37713	1268.83560	-514.19122	-454.39842	1211.08813	-657.19766	-642.74486	1270.34803	-610.18630	-448.97448	1717.94064	-557.08823	-413.35363	1667.81891	-395.51523	-397.19957	1654.63779	-707.56581	-372.41761	1590.79637	-536.67691	-383.20407	1588.19657	-556.45169	-509.56223	1500.48087	-249.72480	-587.62845	1404.07882	-260.49611	-564.30135	1435.01934	-203.74340	-433.30653	1389.25507	-177.11148	-336.16796	1361.61466	-189.40241	-350.13537	1339.13055	-153.63450	-482.76485	1466.21823	-833.90236	-562.56567	1363.59163	-811.33570	-536.46001	1377.45370	-871.64590	-407.43570	1304.10289	-852.33593	-316.49375	1268.28575	-808.23979	-332.65506	1230.96606	-825.01141	-547.36295	1150.40612	-461.07073	-544.57347	1148.98422	-651.71775	-540.07161	1152.15768	-465.55033	-529.58821	1154.55028	-617.25760	
147	1.46000000	-380.85204	768.51214	-372.11523	-402.36045	719.16455	-343.64105	-345.62211	363.18335	-382.95658	-399.90916	344.27447	-441.01370	-235.55352	266.70488	-353.38587	-184.01881	292.34271	-396.70553	-391.09901	765.38188	-752.16620	-348.17672	693.43838	-768.95708	-328.07553	366.34223	-762.03452	-390.66647	339.16635	-716.37027	-214.24076	272.11210	-768.53448	-173.82868	291.32463	-713.76119	-385.22087	603.43591	-337.20716	-331.98331	731.48012	-374.08693	-314.91708	616.96667	-380.30810	-433.04496	686.26659	-783.31581	-407.99739	566.47072	-791.82479	-410.72597	1066.05726	-451.77912	-360.83856	968.08424	-434.59452	-372.00991	947.84011	-370.22284	-470.78714	1052.29258	-360.20254	-423.71484	948.21839	-345.59464	-442.66924	1082.33949	-729.05977	-403.47594	947.99576	-755.17301	-549.97618	1054.41923	-751.49510	-515.36549	917.00613	-742.85607	-461.40017	1212.68279	-426.23837	-637.16035	1248.36000	-514.15719	-440.67153	1193.81091	-656.12171	-630.13209	1250.37999	-610.15677	-441.41626	1701.20641	-556.69698	-405.89944	1651.61544	-395.28326	-389.54813	1637.86432	-707.10718	-364.64011	1574.35679	-535.90997	-374.98978	1571.83822	-556.27127	-504.60157	1484.26267	-251.27475	-582.03561	1387.17686	-263.55374	-559.86879	1418.21000	-206.46528	-428.20456	1375.21106	-179.30814	-330.48063	1349.88094	-191.25568	-344.00559	1326.82992	-155.62292	-475.25168	1449.47343	-833.29288	-554.18668	1346.16409	-810.35723	-528.63065	1360.39535	-870.63456	-398.62764	1288.77797	-851.84789	-306.94411	1254.44296	-808.10455	-322.76842	1216.82397	-824.39225	-533.74381	1131.85092	-460.13440	-529.69009	1130.34325	-650.75434	-526.11231	1132.72296	-464.19427	-514.95602	1135.92828	-616.60130	
148	1.47000000	-368.41895	748.96549	-370.84330	-389.91692	699.45273	-342.64455	-327.94888	344.40783	-380.84256	-382.22705	324.44982	-438.93900	-217.36630	248.61420	-350.54745	-165.94971	273.93318	-394.20589	-376.28739	747.00776	-753.78956	-332.46281	675.46610	-769.92141	-310.09080	347.75148	-762.96150	-372.20350	321.27758	-717.75348	-195.82466	253.90370	-770.00567	-155.03414	273.62421	-715.69045	-371.20299	583.64586	-335.94244	-319.24923	712.53529	-372.52151	-300.74461	598.38941	-378.47662	-417.23070	667.73798	-784.45601	-391.14273	548.08560	-793.40779	-396.10719	1046.91914	-449.07490	-347.29326	948.47960	-431.78005	-359.54872	927.98493	-367.76576	-458.20479	1032.68138	-359.12766	-411.75912	928.48011	-344.20828	-428.65357	1063.45851	-728.93886	-389.07115	929.27794	-755.32708	-535.84064	1035.15170	-750.97602	-500.78110	897.89351	-742.64931	-448.85112	1194.26743	-424.46488	-624.78839	1227.15301	-514.04970	-426.44534	1175.39453	-653.83859	-617.39057	1229.57980	-610.29842	-434.25335	1683.41667	-556.07384	-398.81232	1634.35181	-395.06744	-382.24546	1620.25939	-706.55277	-357.05996	1556.92598	-535.12897	-367.29154	1554.55878	-555.91645	-499.26850	1466.39824	-252.86535	-575.63068	1368.17130	-266.99663	-554.76704	1399.55629	-209.23833	-422.26815	1359.73341	-182.08442	-324.03905	1337.48109	-193.72778	-336.82620	1313.49928	-158.49488	-467.54494	1431.42525	-832.53108	-545.13619	1327.10373	-809.01316	-520.19723	1341.70553	-869.29343	-388.88946	1272.26964	-850.74301	-296.39497	1239.89758	-807.23195	-311.84803	1201.94864	-823.15698	-520.17872	1112.39411	-458.92633	-514.51455	1110.69646	-649.50369	-511.86945	1112.90856	-462.78575	-500.17907	1116.74270	-614.90730	
149	1.48000000	-355.32260	728.67927	-369.71210	-376.40203	678.92700	-341.73268	-311.55368	324.41522	-378.81439	-365.52649	303.90217	-436.92538	-200.97128	228.95202	-347.63545	-149.25443	254.29777	-391.06655	-360.91994	727.82819	-754.87278	-316.57653	656.49595	-770.95009	-293.12645	328.26112	-764.02828	-354.59019	302.53733	-718.89549	-178.87969	234.38971	-772.20027	-137.53413	254.28502	-718.05370	-356.36313	563.61597	-333.96237	-305.70686	692.41613	-371.10556	-286.49951	578.91112	-376.70484	-401.34771	648.52529	-785.09297	-374.77878	528.89953	-794.36267	-381.31106	1027.07542	-446.97045	-333.49587	928.21262	-429.49424	-346.71427	907.62656	-365.47398	-445.38812	1012.56912	-358.28560	-399.42985	908.19827	-343.04873	-414.97363	1043.83921	-728.93426	-374.74311	909.86788	-755.74725	-522.08363	1014.84258	-750.59789	-486.12704	877.74371	-742.37317	-436.00292	1174.43289	-423.37391	-612.30374	1205.20060	-513.86893	-412.29733	1156.12348	-651.62679	-604.63065	1207.90949	-610.46899	-427.36792	1664.44839	-555.32303	-392.11372	1615.91745	-394.56261	-375.39558	1601.77912	-706.01074	-349.76642	1538.28167	-534.51101	-359.41001	1536.44881	-555.38001	-493.47480	1446.84309	-254.29620	-568.42401	1347.26036	-270.40968	-548.91993	1379.07505	-211.96883	-415.43211	1342.79205	-185.24390	-316.63509	1323.84387	-197.02795	-328.60514	1299.09344	-162.13125	-459.58525	1411.96121	-831.40330	-535.43349	1306.37547	-807.10834	-511.12991	1321.36862	-867.54173	-378.30163	1254.69231	-849.20623	-285.00820	1224.62824	-805.70194	-299.78865	1186.18820	-821.13301	-506.52436	1091.78396	-458.08556	-499.54587	1090.27056	-648.62430	-497.68598	1092.57585	-461.81581	-485.65934	1096.82220	-613.21743	
